<svg width="45" height="37" viewBox="0 0 45 37" fill="none" xmlns="http://www.w3.org/2000/svg">
<path d="M26.1982 4.94141C28.0452 6.44816 28.8981 8.98281 28.1621 11.4082C27.5936 13.2811 26.2013 14.6755 24.5049 15.3105C24.6057 15.4005 24.7057 15.4925 24.8027 15.5889L25.0059 15.7988L25.0088 15.8018L44.6289 37H37.3369L31.1074 30.2695H21.1572L20.7432 31.6348H25.9893L31.0479 37H0L1.59766 31.6348H10.7539L11.957 27.6689C7.62623 24.3052 5.5893 18.4781 7.28125 12.9023C9.23906 6.45082 15.5257 2.52185 21.9639 3.37402L22.7734 0.709961L22.9883 0H27.6982L26.1982 4.94141Z" fill="white"/>
<path fill-rule="evenodd" clip-rule="evenodd" d="M25.0324 5.33655C26.9346 6.50957 27.887 8.86896 27.2047 11.1174C26.3983 13.7748 23.6128 15.274 20.9742 14.4765C22.1774 14.8507 23.3505 15.4908 24.2738 16.4808L42.3398 36H37.7726L31.5429 29.2692H20.4146L19.3935 32.6346H25.5566L28.7298 36H1.33984L2.34192 32.6346H11.4945L13.1178 27.2848C8.73124 24.2483 6.59833 18.5927 8.23692 13.1928C10.1363 6.93362 16.4272 3.2443 22.6652 4.50539L23.7289 1H26.3484L25.0324 5.33655ZM14.114 32.6346H16.7738L17.8091 29.2226C17.2973 29.1577 16.7911 29.0403 16.2995 28.8699C15.9803 28.7642 15.6679 28.6468 15.363 28.5181L14.114 32.6346ZM19.9713 17.6874C17.7662 17.0082 15.4321 18.2586 14.7579 20.4803C14.0851 22.6977 15.3201 25.0446 17.5172 25.729C17.5214 25.7303 17.5256 25.7317 17.5297 25.7329C17.5346 25.7344 17.5396 25.7359 17.5444 25.7374C17.9549 25.8622 18.3696 25.9203 18.7773 25.9178V25.9038H28.4283L21.831 18.7759C21.3504 18.263 20.6886 17.9084 19.9713 17.6874ZM22.9015 8.03231C22.0195 7.7606 21.0857 8.2607 20.816 9.14939C20.5463 10.0381 21.0428 10.9789 21.9249 11.2506C22.807 11.5223 23.7408 11.0221 24.0104 10.1334C24.2801 9.2447 23.7835 8.30405 22.9015 8.03231Z" fill="black"/>
</svg>
