<svg width="61" height="64" viewBox="0 0 61 64" fill="none" xmlns="http://www.w3.org/2000/svg">
<path fill-rule="evenodd" clip-rule="evenodd" d="M29.4072 9.19629C32.1207 10.769 33.9471 13.7025 33.9473 17.0645C33.9473 22.0852 29.8771 26.1552 24.8564 26.1553C24.3674 26.1553 23.8871 26.1164 23.4189 26.042C25.0507 26.7538 26.5585 27.8218 27.8184 29.2402L56.9121 62H48.5752L39.8096 52.1299H24.0771C22.8134 52.1299 21.5748 52.0223 20.3691 51.8184L17.2559 62H13.0117L16.4443 50.7744C15.301 50.3531 14.2027 49.8393 13.1572 49.2432L9.25586 62H5.01172L9.66699 46.7783C4.97181 42.7296 1.99908 36.7378 1.99902 30.0518C1.99922 17.8586 11.884 7.97363 24.0771 7.97363V8.00879C24.334 7.98698 24.594 7.97364 24.8564 7.97363C25.0825 7.97364 25.3064 7.98378 25.5283 8L27.3652 2H31.6094L29.4072 9.19629ZM23.1572 33.3799C20.7966 30.7223 16.7283 30.4816 14.0703 32.8418C11.7386 34.9127 11.2664 38.2983 12.7793 40.8926C12.7852 40.9019 12.9797 41.2059 13.2881 41.6523C16.1169 44.2844 19.9085 45.8955 24.0771 45.8955H34.2725L23.1572 33.3799ZM24.8564 14.207C23.2787 14.2071 21.9993 15.4868 21.999 17.0645C21.999 18.6423 23.2786 19.9218 24.8564 19.9219C26.4343 19.9218 27.7129 18.6423 27.7129 17.0645C27.7126 15.4868 26.4342 14.2071 24.8564 14.207Z" fill="black"/>
<path d="M31.5176 8.45215C34.0868 10.4414 35.7469 13.5569 35.7471 17.0645L35.7334 17.625C35.5054 22.1223 32.5476 25.8962 28.4854 27.332C28.7177 27.5606 28.9446 27.7978 29.1641 28.0449L60.918 63.7998H47.7666L39.001 53.9297H24.0771C23.2555 53.9297 22.4437 53.8872 21.6436 53.8057L18.5879 63.7998H2.5791L7.61133 47.3428C3.19948 43.1401 0.389788 37.2617 0.208008 30.7275L0.199219 30.0518C0.199433 16.8646 10.8898 6.17383 24.0771 6.17383H24.2051L26.0342 0.200195H34.043L31.5176 8.45215ZM27.3652 2L25.5283 8C25.3064 7.98378 25.0825 7.97364 24.8564 7.97363C24.594 7.97364 24.334 7.98698 24.0771 8.00879V7.97363C11.884 7.97363 1.99922 17.8586 1.99902 30.0518C1.99908 36.7378 4.97181 42.7296 9.66699 46.7783L5.01172 62H9.25586L13.1572 49.2432C14.2027 49.8393 15.301 50.3531 16.4443 50.7744L13.0117 62H17.2559L20.3691 51.8184C21.5748 52.0223 22.8134 52.1299 24.0771 52.1299H39.8096L48.5752 62H56.9121L27.8184 29.2402C26.5585 27.8218 25.0507 26.7538 23.4189 26.042C23.8871 26.1164 24.3674 26.1553 24.8564 26.1553C29.8771 26.1552 33.9473 22.0852 33.9473 17.0645C33.9471 13.7025 32.1207 10.769 29.4072 9.19629L31.6094 2H27.3652ZM14.0703 32.8418C16.7283 30.4816 20.7966 30.7223 23.1572 33.3799L34.2725 45.8955H24.0771C19.9085 45.8955 16.1169 44.2844 13.2881 41.6523C12.9797 41.2059 12.7852 40.9019 12.7793 40.8926C11.2664 38.2983 11.7386 34.9127 14.0703 32.8418ZM21.8115 34.5752C20.1112 32.661 17.1805 32.4873 15.2656 34.1875C13.5962 35.6702 13.2488 38.092 14.3174 39.9561C14.3578 40.0185 14.4789 40.2013 14.6553 40.46C17.1489 42.7189 20.4495 44.0957 24.0771 44.0957H30.2666L21.8115 34.5752ZM24.8564 14.207C26.4342 14.2071 27.7126 15.4868 27.7129 17.0645C27.7129 18.6423 26.4343 19.9218 24.8564 19.9219C23.2786 19.9218 21.999 18.6423 21.999 17.0645C21.9993 15.4868 23.2787 14.2071 24.8564 14.207ZM24.8564 16.0068C24.2731 16.0069 23.7991 16.4807 23.7988 17.0645C23.7988 17.6481 24.2725 18.122 24.8564 18.1221L24.9639 18.1162C25.4966 18.0623 25.9131 17.6125 25.9131 17.0645C25.9129 16.5163 25.4961 16.0667 24.9639 16.0127L24.8564 16.0068Z" fill="white"/>
<path fill-rule="evenodd" clip-rule="evenodd" d="M23.1572 33.3799C20.7966 30.7223 16.7283 30.4816 14.0703 32.8418C11.7386 34.9127 11.2664 38.2983 12.7793 40.8926C12.7852 40.9019 12.9797 41.2059 13.2881 41.6523C16.1169 44.2844 19.9085 45.8955 24.0771 45.8955H34.2725L23.1572 33.3799ZM24.8564 14.207C23.2787 14.2071 21.9993 15.4868 21.999 17.0645C21.999 18.6423 23.2786 19.9218 24.8564 19.9219C26.4343 19.9218 27.7129 18.6423 27.7129 17.0645C27.7126 15.4868 26.4342 14.2071 24.8564 14.207Z" fill="white"/>
</svg>
