<svg width="232" height="60" viewBox="0 0 232 60" fill="none" xmlns="http://www.w3.org/2000/svg">
<path fill-rule="evenodd" clip-rule="evenodd" d="M27.4082 7.19629C30.1217 8.76904 31.9481 11.7025 31.9482 15.0645C31.9482 20.0852 27.8781 24.1552 22.8574 24.1553C22.3684 24.1553 21.8881 24.1164 21.4199 24.042C23.0516 24.7538 24.5595 25.8218 25.8193 27.2402L54.9131 60H46.5762L37.8105 50.1299H22.0781C20.8144 50.1299 19.5758 50.0223 18.3701 49.8184L15.2568 60H11.0127L14.4453 48.7744C13.302 48.3531 12.2036 47.8393 11.1582 47.2432L7.25684 60H3.0127L7.66797 44.7783C2.97279 40.7296 6.00512e-05 34.7378 0 28.0518C0.000197917 15.8586 9.88495 5.97363 22.0781 5.97363V6.00879C22.335 5.98698 22.5949 5.97364 22.8574 5.97363C23.0834 5.97364 23.3074 5.98378 23.5293 6L25.3662 0H29.6104L27.4082 7.19629ZM21.1582 31.3799C18.7976 28.7223 14.7293 28.4816 12.0713 30.8418C9.73959 32.9127 9.26737 36.2983 10.7803 38.8926C10.7862 38.9019 10.9806 39.2059 11.2891 39.6523C14.1179 42.2844 17.9094 43.8955 22.0781 43.8955H32.2734L21.1582 31.3799ZM22.8574 12.207C21.2797 12.2071 20.0002 13.4868 20 15.0645C20 16.6423 21.2795 17.9218 22.8574 17.9219C24.4353 17.9218 25.7139 16.6423 25.7139 15.0645C25.7136 13.4868 24.4351 12.2071 22.8574 12.207Z" fill="black"/>
<path d="M85.0455 45.1056C82.9337 45.1056 81.1155 44.6274 79.5909 43.671C78.0758 42.7051 76.911 41.3746 76.0966 39.6795C75.2822 37.9844 74.875 36.0431 74.875 33.8556C74.875 31.6397 75.2917 29.6842 76.125 27.9891C76.9583 26.2846 78.1326 24.9541 79.6477 23.9977C81.1629 23.0412 82.9479 22.563 85.0028 22.563C86.66 22.563 88.1373 22.8708 89.4347 23.4863C90.732 24.0924 91.7784 24.9446 92.5739 26.0431C93.3788 27.1416 93.857 28.4248 94.0085 29.8926H89.875C89.6477 28.8698 89.1269 27.9891 88.3125 27.2505C87.5076 26.5119 86.428 26.1426 85.0739 26.1426C83.8902 26.1426 82.8532 26.4551 81.9631 27.0801C81.0824 27.6956 80.3958 28.5763 79.9034 29.7221C79.411 30.8585 79.1648 32.2032 79.1648 33.7562C79.1648 35.3471 79.4063 36.7202 79.8892 37.8755C80.3722 39.0308 81.054 39.9257 81.9347 40.5602C82.8248 41.1946 83.8712 41.5119 85.0739 41.5119C85.8788 41.5119 86.608 41.3651 87.2614 41.0715C87.9242 40.7685 88.4782 40.3376 88.9233 39.7789C89.3778 39.2202 89.6951 38.5479 89.875 37.7619H94.0085C93.857 39.1729 93.3977 40.4323 92.6307 41.5403C91.8636 42.6482 90.8362 43.5194 89.5483 44.1539C88.2699 44.7884 86.7689 45.1056 85.0455 45.1056ZM98.5504 44.6653V22.8471H102.627V26.3982H102.897C103.352 25.1956 104.095 24.2581 105.127 23.5857C106.159 22.9039 107.395 22.563 108.835 22.563C110.293 22.563 111.514 22.9039 112.499 23.5857C113.494 24.2676 114.228 25.2051 114.701 26.3982H114.928C115.449 25.2335 116.278 24.3054 117.414 23.6141C118.55 22.9134 119.905 22.563 121.477 22.563C123.456 22.563 125.07 23.1833 126.32 24.4238C127.58 25.6643 128.21 27.5346 128.21 30.0346V44.6653H123.962V30.4323C123.962 28.9551 123.56 27.885 122.755 27.2221C121.95 26.5592 120.989 26.2278 119.871 26.2278C118.489 26.2278 117.414 26.6539 116.647 27.5062C115.88 28.349 115.496 29.4333 115.496 30.759V44.6653H111.263V30.1624C111.263 28.9787 110.894 28.027 110.156 27.3073C109.417 26.5876 108.456 26.2278 107.272 26.2278C106.467 26.2278 105.724 26.4409 105.042 26.867C104.37 27.2837 103.825 27.866 103.408 28.6141C103.001 29.3623 102.798 30.2287 102.798 31.2136V44.6653H98.5504ZM150.251 28.1738L146.402 28.8556C146.241 28.3632 145.985 27.8944 145.635 27.4494C145.294 27.0043 144.83 26.6397 144.243 26.3556C143.656 26.0715 142.922 25.9295 142.041 25.9295C140.839 25.9295 139.835 26.1994 139.03 26.7391C138.225 27.2694 137.822 27.956 137.822 28.7988C137.822 29.528 138.092 30.1151 138.632 30.5602C139.172 31.0052 140.043 31.3698 141.246 31.6539L144.712 32.4494C146.719 32.9134 148.215 33.6284 149.2 34.5943C150.185 35.5602 150.678 36.8149 150.678 38.3585C150.678 39.6653 150.299 40.8301 149.541 41.8528C148.793 42.866 147.747 43.6615 146.402 44.2391C145.067 44.8168 143.518 45.1056 141.757 45.1056C139.314 45.1056 137.321 44.5848 135.777 43.5431C134.233 42.492 133.286 41.0005 132.936 39.0687L137.041 38.4437C137.297 39.5138 137.822 40.3234 138.618 40.8727C139.413 41.4124 140.45 41.6823 141.729 41.6823C143.121 41.6823 144.233 41.3935 145.067 40.8159C145.9 40.2287 146.317 39.5138 146.317 38.671C146.317 37.9891 146.061 37.4162 145.55 36.9522C145.048 36.4882 144.276 36.1378 143.234 35.9011L139.541 35.0914C137.505 34.6274 136 33.8888 135.024 32.8755C134.058 31.8623 133.575 30.5791 133.575 29.0261C133.575 27.7382 133.935 26.6113 134.655 25.6454C135.375 24.6795 136.369 23.9266 137.638 23.3869C138.907 22.8376 140.36 22.563 141.999 22.563C144.357 22.563 146.213 23.0744 147.567 24.0971C148.921 25.1104 149.816 26.4693 150.251 28.1738ZM155.347 22.8471H159.594V46.0857C159.594 47.5441 159.329 48.7751 158.799 49.7789C158.278 50.7827 157.502 51.545 156.469 52.0659C155.447 52.5867 154.183 52.8471 152.677 52.8471C152.525 52.8471 152.383 52.8471 152.251 52.8471C152.109 52.8471 151.962 52.8424 151.81 52.8329V49.1823C151.943 49.1823 152.061 49.1823 152.165 49.1823C152.26 49.1823 152.369 49.1823 152.492 49.1823C153.496 49.1823 154.22 48.9124 154.665 48.3727C155.12 47.8424 155.347 47.0706 155.347 46.0573V22.8471ZM157.45 19.4806C156.711 19.4806 156.076 19.2344 155.546 18.742C155.025 18.2401 154.765 17.6435 154.765 16.9522C154.765 16.2515 155.025 15.6549 155.546 15.1624C156.076 14.6605 156.711 14.4096 157.45 14.4096C158.188 14.4096 158.818 14.6605 159.339 15.1624C159.869 15.6549 160.134 16.2515 160.134 16.9522C160.134 17.6435 159.869 18.2401 159.339 18.742C158.818 19.2344 158.188 19.4806 157.45 19.4806ZM181.658 28.1738L177.808 28.8556C177.647 28.3632 177.392 27.8944 177.041 27.4494C176.7 27.0043 176.236 26.6397 175.649 26.3556C175.062 26.0715 174.328 25.9295 173.447 25.9295C172.245 25.9295 171.241 26.1994 170.436 26.7391C169.631 27.2694 169.229 27.956 169.229 28.7988C169.229 29.528 169.499 30.1151 170.038 30.5602C170.578 31.0052 171.449 31.3698 172.652 31.6539L176.118 32.4494C178.125 32.9134 179.622 33.6284 180.607 34.5943C181.591 35.5602 182.084 36.8149 182.084 38.3585C182.084 39.6653 181.705 40.8301 180.947 41.8528C180.199 42.866 179.153 43.6615 177.808 44.2391C176.473 44.8168 174.925 45.1056 173.163 45.1056C170.72 45.1056 168.727 44.5848 167.183 43.5431C165.64 42.492 164.693 41.0005 164.342 39.0687L168.447 38.4437C168.703 39.5138 169.229 40.3234 170.024 40.8727C170.82 41.4124 171.857 41.6823 173.135 41.6823C174.527 41.6823 175.64 41.3935 176.473 40.8159C177.306 40.2287 177.723 39.5138 177.723 38.671C177.723 37.9891 177.467 37.4162 176.956 36.9522C176.454 36.4882 175.682 36.1378 174.641 35.9011L170.947 35.0914C168.911 34.6274 167.406 33.8888 166.43 32.8755C165.464 31.8623 164.982 30.5791 164.982 29.0261C164.982 27.7382 165.341 26.6113 166.061 25.6454C166.781 24.6795 167.775 23.9266 169.044 23.3869C170.313 22.8376 171.767 22.563 173.405 22.563C175.763 22.563 177.619 23.0744 178.973 24.0971C180.327 25.1104 181.222 26.4693 181.658 28.1738ZM195.944 45.1056C193.898 45.1056 192.113 44.6369 190.589 43.6994C189.064 42.7619 187.88 41.4503 187.038 39.7647C186.195 38.0791 185.773 36.1094 185.773 33.8556C185.773 31.5924 186.195 29.6132 187.038 27.9181C187.88 26.223 189.064 24.9068 190.589 23.9693C192.113 23.0318 193.898 22.563 195.944 22.563C197.989 22.563 199.774 23.0318 201.299 23.9693C202.824 24.9068 204.007 26.223 204.85 27.9181C205.693 29.6132 206.114 31.5924 206.114 33.8556C206.114 36.1094 205.693 38.0791 204.85 39.7647C204.007 41.4503 202.824 42.7619 201.299 43.6994C199.774 44.6369 197.989 45.1056 195.944 45.1056ZM195.958 41.5403C197.284 41.5403 198.382 41.1899 199.254 40.4891C200.125 39.7884 200.769 38.8556 201.185 37.6909C201.612 36.5261 201.825 35.2429 201.825 33.8414C201.825 32.4494 201.612 31.171 201.185 30.0062C200.769 28.8319 200.125 27.8897 199.254 27.1795C198.382 26.4693 197.284 26.1141 195.958 26.1141C194.623 26.1141 193.515 26.4693 192.634 27.1795C191.763 27.8897 191.114 28.8319 190.688 30.0062C190.272 31.171 190.063 32.4494 190.063 33.8414C190.063 35.2429 190.272 36.5261 190.688 37.6909C191.114 38.8556 191.763 39.7884 192.634 40.4891C193.515 41.1899 194.623 41.5403 195.958 41.5403ZM215.102 31.7107V44.6653H210.855V22.8471H214.932V26.3982H215.202C215.704 25.2429 216.49 24.3149 217.56 23.6141C218.639 22.9134 219.998 22.563 221.636 22.563C223.123 22.563 224.425 22.8755 225.543 23.5005C226.66 24.116 227.527 25.0346 228.142 26.2562C228.758 27.4778 229.065 28.9882 229.065 30.7874V44.6653H224.818V31.2988C224.818 29.7174 224.406 28.4816 223.582 27.5914C222.759 26.6918 221.627 26.242 220.188 26.242C219.203 26.242 218.327 26.4551 217.56 26.8812C216.802 27.3073 216.201 27.9323 215.756 28.7562C215.32 29.5706 215.102 30.5554 215.102 31.7107Z" fill="black"/>
</svg>
