<svg width="55" height="60" viewBox="0 0 55 60" fill="none" xmlns="http://www.w3.org/2000/svg">
<path fill-rule="evenodd" clip-rule="evenodd" d="M27.4082 7.19629C30.1217 8.76904 31.9481 11.7025 31.9482 15.0645C31.9482 20.0852 27.8781 24.1552 22.8574 24.1553C22.3684 24.1553 21.8881 24.1164 21.4199 24.042C23.0516 24.7538 24.5595 25.8218 25.8193 27.2402L54.9131 60H46.5762L37.8105 50.1299H22.0781C20.8144 50.1299 19.5758 50.0223 18.3701 49.8184L15.2568 60H11.0127L14.4453 48.7744C13.302 48.3531 12.2036 47.8393 11.1582 47.2432L7.25684 60H3.0127L7.66797 44.7783C2.97279 40.7296 6.00512e-05 34.7378 0 28.0518C0.000197917 15.8586 9.88495 5.97363 22.0781 5.97363V6.00879C22.335 5.98698 22.5949 5.97364 22.8574 5.97363C23.0834 5.97364 23.3074 5.98378 23.5293 6L25.3662 0H29.6104L27.4082 7.19629ZM21.1582 31.3799C18.7976 28.7223 14.7293 28.4816 12.0713 30.8418C9.73959 32.9127 9.26737 36.2983 10.7803 38.8926C10.7862 38.9019 10.9806 39.2059 11.2891 39.6523C14.1179 42.2844 17.9094 43.8955 22.0781 43.8955H32.2734L21.1582 31.3799ZM22.8574 12.207C21.2797 12.2071 20.0002 13.4868 20 15.0645C20 16.6423 21.2795 17.9218 22.8574 17.9219C24.4353 17.9218 25.7139 16.6423 25.7139 15.0645C25.7136 13.4868 24.4351 12.2071 22.8574 12.207Z" fill="black"/>
</svg>
