<svg width="159" height="117" viewBox="0 0 159 117" fill="none" xmlns="http://www.w3.org/2000/svg">
<path d="M78.0195 1.98214C78.2283 -0.43757 81.7719 -0.43757 81.9807 1.98214L82.4494 7.41424C82.6649 9.9115 83.2141 12.3687 84.0824 14.7205L84.2615 15.2056C85.0961 17.4661 87.427 18.81 89.8046 18.4015C92.0039 18.0236 94.1427 17.3535 96.1641 16.4091L102.151 13.6118C104.354 12.5826 106.126 15.6471 104.132 17.0376L100.009 19.9129C97.902 21.3819 96.0016 23.1259 94.3582 25.0984L94.1156 25.3896C92.4799 27.3529 92.4799 30.2022 94.1156 32.1655C95.6289 33.9817 97.3787 35.5876 99.3184 36.9403L104.132 40.297C106.126 41.6875 104.354 44.7521 102.151 43.723L97.2174 41.4176C94.9923 40.3779 92.6379 39.6403 90.2169 39.2244C87.6004 38.7749 85.0352 40.2539 84.1168 42.7415L84.0687 42.8718C83.193 45.2435 82.6392 47.7216 82.4219 50.2401L81.9807 55.3526C81.7718 57.7723 78.2284 57.7723 78.0195 55.3526L77.4787 49.0876C77.2825 46.8155 76.7828 44.5798 75.9929 42.44C75.139 40.1271 72.754 38.752 70.3213 39.1699L69.8107 39.2576C67.2859 39.6914 64.8305 40.4606 62.5101 41.5449L57.8487 43.723C55.646 44.752 53.8743 41.6875 55.8681 40.297L61.3848 36.4498C63.2079 35.1784 64.8524 33.6692 66.2747 31.9622C67.8124 30.1168 67.8124 27.4384 66.2748 25.5929L66.0323 25.3019C64.4799 23.4385 62.6847 21.7911 60.6946 20.4033L55.8681 17.0376C53.8743 15.6471 55.646 12.5827 57.8487 13.6118L63.5635 16.2819C65.6802 17.2708 67.9198 17.9725 70.2228 18.3682L70.36 18.3918C72.7703 18.8059 75.1333 17.4435 75.9792 15.1519C76.7616 13.0324 77.2566 10.8178 77.4509 8.56717L78.0195 1.98214Z" fill="black"/>
<path d="M12.0455 108.273C9.93371 108.273 8.11553 107.795 6.59091 106.838C5.07576 105.872 3.91098 104.542 3.09659 102.847C2.2822 101.152 1.875 99.2105 1.875 97.023C1.875 94.8071 2.29167 92.8516 3.125 91.1565C3.95833 89.452 5.13258 88.1215 6.64773 87.165C8.16288 86.2086 9.94792 85.7304 12.0028 85.7304C13.66 85.7304 15.1373 86.0381 16.4347 86.6537C17.732 87.2597 18.7784 88.112 19.5739 89.2105C20.3788 90.309 20.857 91.5921 21.0085 93.0599H16.875C16.6477 92.0372 16.1269 91.1565 15.3125 90.4179C14.5076 89.6792 13.428 89.3099 12.0739 89.3099C10.8902 89.3099 9.85322 89.6224 8.96307 90.2474C8.08239 90.8629 7.39583 91.7436 6.90341 92.8895C6.41099 94.0258 6.16477 95.3705 6.16477 96.9236C6.16477 98.5145 6.40625 99.8876 6.8892 101.043C7.37216 102.198 8.05398 103.093 8.93466 103.728C9.82481 104.362 10.8712 104.679 12.0739 104.679C12.8788 104.679 13.608 104.532 14.2614 104.239C14.9242 103.936 15.4782 103.505 15.9233 102.946C16.3778 102.388 16.6951 101.715 16.875 100.929H21.0085C20.857 102.34 20.3977 103.6 19.6307 104.708C18.8636 105.816 17.8362 106.687 16.5483 107.321C15.2699 107.956 13.7689 108.273 12.0455 108.273ZM25.5504 107.833V86.0145H29.6271V89.5656H29.897C30.3516 88.3629 31.0949 87.4254 32.1271 86.7531C33.1593 86.0713 34.3951 85.7304 35.8345 85.7304C37.2929 85.7304 38.5144 86.0713 39.4993 86.7531C40.4936 87.4349 41.2275 88.3724 41.701 89.5656H41.9283C42.4491 88.4008 43.2777 87.4728 44.4141 86.7815C45.5504 86.0807 46.9046 85.7304 48.4766 85.7304C50.4557 85.7304 52.0703 86.3506 53.3203 87.5912C54.5798 88.8317 55.2095 90.702 55.2095 93.202V107.833H50.9624V93.5997C50.9624 92.1224 50.5599 91.0523 49.755 90.3895C48.95 89.7266 47.9889 89.3951 46.8714 89.3951C45.4889 89.3951 44.4141 89.8213 43.647 90.6736C42.88 91.5164 42.4964 92.6006 42.4964 93.9264V107.833H38.2635V93.3298C38.2635 92.1461 37.8942 91.1944 37.1555 90.4747C36.4169 89.755 35.4557 89.3951 34.272 89.3951C33.4671 89.3951 32.7237 89.6082 32.0419 90.0343C31.3696 90.451 30.825 91.0334 30.4084 91.7815C30.0012 92.5296 29.7976 93.3961 29.7976 94.3809V107.833H25.5504ZM77.2514 91.3412L73.402 92.023C73.241 91.5306 72.9853 91.0618 72.6349 90.6167C72.294 90.1717 71.83 89.8071 71.2429 89.523C70.6558 89.2389 69.9219 89.0968 69.0412 89.0968C67.8385 89.0968 66.8348 89.3667 66.0298 89.9065C65.2249 90.4368 64.8224 91.1234 64.8224 91.9662C64.8224 92.6953 65.0923 93.2825 65.6321 93.7275C66.1719 94.1726 67.0431 94.5372 68.2457 94.8213L71.7116 95.6167C73.7192 96.0807 75.2154 96.7957 76.2003 97.7616C77.1851 98.7275 77.6776 99.9823 77.6776 101.526C77.6776 102.833 77.2988 103.997 76.5412 105.02C75.7931 106.033 74.7467 106.829 73.402 107.407C72.0668 107.984 70.5185 108.273 68.7571 108.273C66.3139 108.273 64.3205 107.752 62.777 106.71C61.2334 105.659 60.2865 104.168 59.9361 102.236L64.0412 101.611C64.2969 102.681 64.8224 103.491 65.6179 104.04C66.4134 104.58 67.4503 104.85 68.7287 104.85C70.1207 104.85 71.2334 104.561 72.0668 103.983C72.9001 103.396 73.3168 102.681 73.3168 101.838C73.3168 101.157 73.0611 100.584 72.5497 100.12C72.0478 99.6556 71.276 99.3052 70.2344 99.0684L66.5412 98.2588C64.5052 97.7948 62.9995 97.0561 62.0241 96.0429C61.0582 95.0296 60.5753 93.7465 60.5753 92.1934C60.5753 90.9056 60.9351 89.7787 61.6548 88.8128C62.3745 87.8468 63.3688 87.094 64.6378 86.5542C65.9067 86.005 67.3603 85.7304 68.9986 85.7304C71.3565 85.7304 73.2126 86.2417 74.5668 87.2645C75.9209 88.2777 76.8158 89.6366 77.2514 91.3412ZM82.3473 86.0145H86.5945V109.253C86.5945 110.711 86.3293 111.942 85.799 112.946C85.2782 113.95 84.5017 114.712 83.4695 115.233C82.4467 115.754 81.1825 116.014 79.6768 116.014C79.5253 116.014 79.3833 116.014 79.2507 116.014C79.1087 116.014 78.9619 116.01 78.8104 116V112.35C78.9429 112.35 79.0613 112.35 79.1655 112.35C79.2602 112.35 79.3691 112.35 79.4922 112.35C80.496 112.35 81.2204 112.08 81.6655 111.54C82.12 111.01 82.3473 110.238 82.3473 109.225V86.0145ZM84.4496 82.648C83.7109 82.648 83.0765 82.4018 82.5462 81.9093C82.0253 81.4075 81.7649 80.8109 81.7649 80.1196C81.7649 79.4188 82.0253 78.8222 82.5462 78.3298C83.0765 77.8279 83.7109 77.577 84.4496 77.577C85.1882 77.577 85.8179 77.8279 86.3388 78.3298C86.8691 78.8222 87.1342 79.4188 87.1342 80.1196C87.1342 80.8109 86.8691 81.4075 86.3388 81.9093C85.8179 82.4018 85.1882 82.648 84.4496 82.648ZM108.658 91.3412L104.808 92.023C104.647 91.5306 104.392 91.0618 104.041 90.6167C103.7 90.1717 103.236 89.8071 102.649 89.523C102.062 89.2389 101.328 89.0968 100.447 89.0968C99.2448 89.0968 98.241 89.3667 97.4361 89.9065C96.6312 90.4368 96.2287 91.1234 96.2287 91.9662C96.2287 92.6953 96.4986 93.2825 97.0384 93.7275C97.5781 94.1726 98.4493 94.5372 99.652 94.8213L103.118 95.6167C105.125 96.0807 106.622 96.7957 107.607 97.7616C108.591 98.7275 109.084 99.9823 109.084 101.526C109.084 102.833 108.705 103.997 107.947 105.02C107.199 106.033 106.153 106.829 104.808 107.407C103.473 107.984 101.925 108.273 100.163 108.273C97.7202 108.273 95.7268 107.752 94.1832 106.71C92.6397 105.659 91.6927 104.168 91.3423 102.236L95.4474 101.611C95.7031 102.681 96.2287 103.491 97.0241 104.04C97.8196 104.58 98.8565 104.85 100.135 104.85C101.527 104.85 102.64 104.561 103.473 103.983C104.306 103.396 104.723 102.681 104.723 101.838C104.723 101.157 104.467 100.584 103.956 100.12C103.454 99.6556 102.682 99.3052 101.641 99.0684L97.9474 98.2588C95.9115 97.7948 94.4058 97.0561 93.4304 96.0429C92.4645 95.0296 91.9815 93.7465 91.9815 92.1934C91.9815 90.9056 92.3414 89.7787 93.0611 88.8128C93.7808 87.8468 94.7751 87.094 96.044 86.5542C97.313 86.005 98.7666 85.7304 100.405 85.7304C102.763 85.7304 104.619 86.2417 105.973 87.2645C107.327 88.2777 108.222 89.6366 108.658 91.3412ZM122.944 108.273C120.898 108.273 119.113 107.804 117.589 106.867C116.064 105.929 114.88 104.618 114.038 102.932C113.195 101.246 112.773 99.2768 112.773 97.023C112.773 94.7597 113.195 92.7806 114.038 91.0855C114.88 89.3904 116.064 88.0741 117.589 87.1366C119.113 86.1991 120.898 85.7304 122.944 85.7304C124.989 85.7304 126.774 86.1991 128.299 87.1366C129.824 88.0741 131.007 89.3904 131.85 91.0855C132.693 92.7806 133.114 94.7597 133.114 97.023C133.114 99.2768 132.693 101.246 131.85 102.932C131.007 104.618 129.824 105.929 128.299 106.867C126.774 107.804 124.989 108.273 122.944 108.273ZM122.958 104.708C124.284 104.708 125.382 104.357 126.254 103.657C127.125 102.956 127.769 102.023 128.185 100.858C128.612 99.6934 128.825 98.4103 128.825 97.0088C128.825 95.6167 128.612 94.3383 128.185 93.1736C127.769 91.9993 127.125 91.0571 126.254 90.3468C125.382 89.6366 124.284 89.2815 122.958 89.2815C121.623 89.2815 120.515 89.6366 119.634 90.3468C118.763 91.0571 118.114 91.9993 117.688 93.1736C117.272 94.3383 117.063 95.6167 117.063 97.0088C117.063 98.4103 117.272 99.6934 117.688 100.858C118.114 102.023 118.763 102.956 119.634 103.657C120.515 104.357 121.623 104.708 122.958 104.708ZM142.102 94.8781V107.833H137.855V86.0145H141.932V89.5656H142.202C142.704 88.4103 143.49 87.4823 144.56 86.7815C145.639 86.0807 146.998 85.7304 148.636 85.7304C150.123 85.7304 151.425 86.0429 152.543 86.6679C153.66 87.2834 154.527 88.202 155.142 89.4236C155.758 90.6451 156.065 92.1556 156.065 93.9548V107.833H151.818V94.4662C151.818 92.8847 151.406 91.6489 150.582 90.7588C149.759 89.8592 148.627 89.4093 147.188 89.4093C146.203 89.4093 145.327 89.6224 144.56 90.0486C143.802 90.4747 143.201 91.0997 142.756 91.9236C142.32 92.7379 142.102 93.7228 142.102 94.8781Z" fill="black"/>
</svg>
