<svg width="159" height="117" viewBox="0 0 159 117" fill="none" xmlns="http://www.w3.org/2000/svg">
<path fill-rule="evenodd" clip-rule="evenodd" d="M82.4082 7.19629C85.1217 8.76904 86.9481 11.7025 86.9482 15.0645C86.9482 20.0852 82.8781 24.1552 77.8574 24.1553C77.3684 24.1553 76.8881 24.1164 76.4199 24.042C78.0516 24.7538 79.5595 25.8218 80.8193 27.2402L109.913 60H101.576L92.8105 50.1299H77.0781C75.8144 50.1299 74.5758 50.0223 73.3701 49.8184L70.2568 60H66.0127L69.4453 48.7744C68.302 48.3531 67.2036 47.8393 66.1582 47.2432L62.2568 60H58.0127L62.668 44.7783C57.9728 40.7296 55.0001 34.7378 55 28.0518C55.0002 15.8586 64.8849 5.97363 77.0781 5.97363V6.00879C77.335 5.98698 77.5949 5.97364 77.8574 5.97363C78.0834 5.97364 78.3074 5.98378 78.5293 6L80.3662 0H84.6104L82.4082 7.19629ZM76.1582 31.3799C73.7976 28.7223 69.7293 28.4816 67.0713 30.8418C64.7396 32.9127 64.2674 36.2983 65.7803 38.8926C65.7862 38.9019 65.9806 39.2059 66.2891 39.6523C69.1179 42.2844 72.9094 43.8955 77.0781 43.8955H87.2734L76.1582 31.3799ZM77.8574 12.207C76.2797 12.2071 75.0002 13.4868 75 15.0645C75 16.6423 76.2795 17.9218 77.8574 17.9219C79.4353 17.9218 80.7139 16.6423 80.7139 15.0645C80.7136 13.4868 79.4351 12.2071 77.8574 12.207Z" fill="black"/>
<path d="M12.0455 108.106C9.93371 108.106 8.11553 107.627 6.59091 106.671C5.07576 105.705 3.91098 104.375 3.09659 102.679C2.2822 100.984 1.875 99.0431 1.875 96.8556C1.875 94.6397 2.29167 92.6842 3.125 90.9891C3.95833 89.2846 5.13258 87.9541 6.64773 86.9977C8.16288 86.0412 9.94792 85.563 12.0028 85.563C13.66 85.563 15.1373 85.8708 16.4347 86.4863C17.732 87.0924 18.7784 87.9446 19.5739 89.0431C20.3788 90.1416 20.857 91.4248 21.0085 92.8926H16.875C16.6477 91.8698 16.1269 90.9891 15.3125 90.2505C14.5076 89.5119 13.428 89.1426 12.0739 89.1426C10.8902 89.1426 9.85322 89.4551 8.96307 90.0801C8.08239 90.6956 7.39583 91.5763 6.90341 92.7221C6.41099 93.8585 6.16477 95.2032 6.16477 96.7562C6.16477 98.3471 6.40625 99.7202 6.8892 100.876C7.37216 102.031 8.05398 102.926 8.93466 103.56C9.82481 104.195 10.8712 104.512 12.0739 104.512C12.8788 104.512 13.608 104.365 14.2614 104.072C14.9242 103.769 15.4782 103.338 15.9233 102.779C16.3778 102.22 16.6951 101.548 16.875 100.762H21.0085C20.857 102.173 20.3977 103.432 19.6307 104.54C18.8636 105.648 17.8362 106.519 16.5483 107.154C15.2699 107.788 13.7689 108.106 12.0455 108.106ZM25.5504 107.665V85.8471H29.6271V89.3982H29.897C30.3516 88.1956 31.0949 87.2581 32.1271 86.5857C33.1593 85.9039 34.3951 85.563 35.8345 85.563C37.2929 85.563 38.5144 85.9039 39.4993 86.5857C40.4936 87.2676 41.2275 88.2051 41.701 89.3982H41.9283C42.4491 88.2335 43.2777 87.3054 44.4141 86.6141C45.5504 85.9134 46.9046 85.563 48.4766 85.563C50.4557 85.563 52.0703 86.1833 53.3203 87.4238C54.5798 88.6643 55.2095 90.5346 55.2095 93.0346V107.665H50.9624V93.4323C50.9624 91.9551 50.5599 90.885 49.755 90.2221C48.95 89.5592 47.9889 89.2278 46.8714 89.2278C45.4889 89.2278 44.4141 89.6539 43.647 90.5062C42.88 91.349 42.4964 92.4333 42.4964 93.759V107.665H38.2635V93.1624C38.2635 91.9787 37.8942 91.027 37.1555 90.3073C36.4169 89.5876 35.4557 89.2278 34.272 89.2278C33.4671 89.2278 32.7237 89.4409 32.0419 89.867C31.3696 90.2837 30.825 90.866 30.4084 91.6141C30.0012 92.3623 29.7976 93.2287 29.7976 94.2136V107.665H25.5504ZM77.2514 91.1738L73.402 91.8556C73.241 91.3632 72.9853 90.8944 72.6349 90.4494C72.294 90.0043 71.83 89.6397 71.2429 89.3556C70.6558 89.0715 69.9219 88.9295 69.0412 88.9295C67.8385 88.9295 66.8348 89.1994 66.0298 89.7391C65.2249 90.2694 64.8224 90.956 64.8224 91.7988C64.8224 92.528 65.0923 93.1151 65.6321 93.5602C66.1719 94.0052 67.0431 94.3698 68.2457 94.6539L71.7116 95.4494C73.7192 95.9134 75.2154 96.6284 76.2003 97.5943C77.1851 98.5602 77.6776 99.8149 77.6776 101.358C77.6776 102.665 77.2988 103.83 76.5412 104.853C75.7931 105.866 74.7467 106.661 73.402 107.239C72.0668 107.817 70.5185 108.106 68.7571 108.106C66.3139 108.106 64.3205 107.585 62.777 106.543C61.2334 105.492 60.2865 104.001 59.9361 102.069L64.0412 101.444C64.2969 102.514 64.8224 103.323 65.6179 103.873C66.4134 104.412 67.4503 104.682 68.7287 104.682C70.1207 104.682 71.2334 104.394 72.0668 103.816C72.9001 103.229 73.3168 102.514 73.3168 101.671C73.3168 100.989 73.0611 100.416 72.5497 99.9522C72.0478 99.4882 71.276 99.1378 70.2344 98.9011L66.5412 98.0914C64.5052 97.6274 62.9995 96.8888 62.0241 95.8755C61.0582 94.8623 60.5753 93.5791 60.5753 92.0261C60.5753 90.7382 60.9351 89.6113 61.6548 88.6454C62.3745 87.6795 63.3688 86.9266 64.6378 86.3869C65.9067 85.8376 67.3603 85.563 68.9986 85.563C71.3565 85.563 73.2126 86.0744 74.5668 87.0971C75.9209 88.1104 76.8158 89.4693 77.2514 91.1738ZM82.3473 85.8471H86.5945V109.086C86.5945 110.544 86.3293 111.775 85.799 112.779C85.2782 113.783 84.5017 114.545 83.4695 115.066C82.4467 115.587 81.1825 115.847 79.6768 115.847C79.5253 115.847 79.3833 115.847 79.2507 115.847C79.1087 115.847 78.9619 115.842 78.8104 115.833V112.182C78.9429 112.182 79.0613 112.182 79.1655 112.182C79.2602 112.182 79.3691 112.182 79.4922 112.182C80.496 112.182 81.2204 111.912 81.6655 111.373C82.12 110.842 82.3473 110.071 82.3473 109.057V85.8471ZM84.4496 82.4806C83.7109 82.4806 83.0765 82.2344 82.5462 81.742C82.0253 81.2401 81.7649 80.6435 81.7649 79.9522C81.7649 79.2515 82.0253 78.6549 82.5462 78.1624C83.0765 77.6605 83.7109 77.4096 84.4496 77.4096C85.1882 77.4096 85.8179 77.6605 86.3388 78.1624C86.8691 78.6549 87.1342 79.2515 87.1342 79.9522C87.1342 80.6435 86.8691 81.2401 86.3388 81.742C85.8179 82.2344 85.1882 82.4806 84.4496 82.4806ZM108.658 91.1738L104.808 91.8556C104.647 91.3632 104.392 90.8944 104.041 90.4494C103.7 90.0043 103.236 89.6397 102.649 89.3556C102.062 89.0715 101.328 88.9295 100.447 88.9295C99.2448 88.9295 98.241 89.1994 97.4361 89.7391C96.6312 90.2694 96.2287 90.956 96.2287 91.7988C96.2287 92.528 96.4986 93.1151 97.0384 93.5602C97.5781 94.0052 98.4493 94.3698 99.652 94.6539L103.118 95.4494C105.125 95.9134 106.622 96.6284 107.607 97.5943C108.591 98.5602 109.084 99.8149 109.084 101.358C109.084 102.665 108.705 103.83 107.947 104.853C107.199 105.866 106.153 106.661 104.808 107.239C103.473 107.817 101.925 108.106 100.163 108.106C97.7202 108.106 95.7268 107.585 94.1832 106.543C92.6397 105.492 91.6927 104.001 91.3423 102.069L95.4474 101.444C95.7031 102.514 96.2287 103.323 97.0241 103.873C97.8196 104.412 98.8565 104.682 100.135 104.682C101.527 104.682 102.64 104.394 103.473 103.816C104.306 103.229 104.723 102.514 104.723 101.671C104.723 100.989 104.467 100.416 103.956 99.9522C103.454 99.4882 102.682 99.1378 101.641 98.9011L97.9474 98.0914C95.9115 97.6274 94.4058 96.8888 93.4304 95.8755C92.4645 94.8623 91.9815 93.5791 91.9815 92.0261C91.9815 90.7382 92.3414 89.6113 93.0611 88.6454C93.7808 87.6795 94.7751 86.9266 96.044 86.3869C97.313 85.8376 98.7666 85.563 100.405 85.563C102.763 85.563 104.619 86.0744 105.973 87.0971C107.327 88.1104 108.222 89.4693 108.658 91.1738ZM122.944 108.106C120.898 108.106 119.113 107.637 117.589 106.699C116.064 105.762 114.88 104.45 114.038 102.765C113.195 101.079 112.773 99.1094 112.773 96.8556C112.773 94.5924 113.195 92.6132 114.038 90.9181C114.88 89.223 116.064 87.9068 117.589 86.9693C119.113 86.0318 120.898 85.563 122.944 85.563C124.989 85.563 126.774 86.0318 128.299 86.9693C129.824 87.9068 131.007 89.223 131.85 90.9181C132.693 92.6132 133.114 94.5924 133.114 96.8556C133.114 99.1094 132.693 101.079 131.85 102.765C131.007 104.45 129.824 105.762 128.299 106.699C126.774 107.637 124.989 108.106 122.944 108.106ZM122.958 104.54C124.284 104.54 125.382 104.19 126.254 103.489C127.125 102.788 127.769 101.856 128.185 100.691C128.612 99.5261 128.825 98.2429 128.825 96.8414C128.825 95.4494 128.612 94.171 128.185 93.0062C127.769 91.8319 127.125 90.8897 126.254 90.1795C125.382 89.4693 124.284 89.1141 122.958 89.1141C121.623 89.1141 120.515 89.4693 119.634 90.1795C118.763 90.8897 118.114 91.8319 117.688 93.0062C117.272 94.171 117.063 95.4494 117.063 96.8414C117.063 98.2429 117.272 99.5261 117.688 100.691C118.114 101.856 118.763 102.788 119.634 103.489C120.515 104.19 121.623 104.54 122.958 104.54ZM142.102 94.7107V107.665H137.855V85.8471H141.932V89.3982H142.202C142.704 88.2429 143.49 87.3149 144.56 86.6141C145.639 85.9134 146.998 85.563 148.636 85.563C150.123 85.563 151.425 85.8755 152.543 86.5005C153.66 87.116 154.527 88.0346 155.142 89.2562C155.758 90.4778 156.065 91.9882 156.065 93.7874V107.665H151.818V94.2988C151.818 92.7174 151.406 91.4816 150.582 90.5914C149.759 89.6918 148.627 89.242 147.188 89.242C146.203 89.242 145.327 89.4551 144.56 89.8812C143.802 90.3073 143.201 90.9323 142.756 91.7562C142.32 92.5706 142.102 93.5554 142.102 94.7107Z" fill="black"/>
</svg>
