<svg width="214" height="57" viewBox="0 0 214 57" fill="none" xmlns="http://www.w3.org/2000/svg">
<path d="M23.0195 1.81478C23.2283 -0.604928 26.7719 -0.604928 26.9807 1.81478L27.4494 7.24688C27.6649 9.74414 28.2141 12.2014 29.0824 14.5531L29.2615 15.0382C30.0961 17.2987 32.427 18.6426 34.8046 18.2341C37.0039 17.8562 39.1427 17.1861 41.1641 16.2417L47.1512 13.4445C49.354 12.4153 51.1257 15.4797 49.1319 16.8702L45.0087 19.7455C42.902 21.2146 41.0016 22.9586 39.3582 24.9311L39.1156 25.2223C37.4799 27.1855 37.4799 30.0349 39.1156 31.9982C40.6289 33.8144 42.3787 35.4202 44.3184 36.7729L49.1319 40.1296C51.1257 41.5201 49.354 44.5847 47.1512 43.5556L42.2174 41.2502C39.9923 40.2106 37.6379 39.4729 35.2169 39.057C32.6004 38.6075 30.0352 40.0865 29.1168 42.5742L29.0687 42.7044C28.193 45.0762 27.6392 47.5543 27.4219 50.0727L26.9807 55.1853C26.7718 57.6049 23.2284 57.6049 23.0195 55.1853L22.4787 48.9202C22.2825 46.6481 21.7828 44.4124 20.9929 42.2727C20.139 39.9597 17.754 38.5846 15.3213 39.0025L14.8107 39.0903C12.2859 39.524 9.83054 40.2932 7.5101 41.3775L2.84874 43.5556C0.646004 44.5847 -1.12573 41.5201 0.868104 40.1296L6.38477 36.2824C8.20785 35.0111 9.85242 33.5018 11.2747 31.7949C12.8124 29.9494 12.8124 27.271 11.2748 25.4255L11.0323 25.1345C9.47987 23.2712 7.68468 21.6237 5.69458 20.2359L0.868104 16.8702C-1.1257 15.4797 0.645984 12.4153 2.84874 13.4445L8.56349 16.1145C10.6802 17.1035 12.9198 17.8051 15.2228 18.2008L15.36 18.2244C17.7703 18.6386 20.1333 17.2761 20.9792 14.9845C21.7616 12.865 22.2566 10.6504 22.4509 8.39981L23.0195 1.81478Z" fill="black"/>
<path d="M69.0455 39.4403C66.9337 39.4403 65.1155 38.9621 63.5909 38.0056C62.0758 37.0397 60.911 35.7092 60.0966 34.0141C59.2822 32.3191 58.875 30.3778 58.875 28.1903C58.875 25.9744 59.2917 24.0189 60.125 22.3238C60.9583 20.6193 62.1326 19.2888 63.6477 18.3323C65.1629 17.3759 66.9479 16.8977 69.0028 16.8977C70.66 16.8977 72.1373 17.2054 73.4347 17.821C74.732 18.427 75.7784 19.2793 76.5739 20.3778C77.3788 21.4763 77.857 22.7594 78.0085 24.2272H73.875C73.6477 23.2045 73.1269 22.3238 72.3125 21.5852C71.5076 20.8465 70.428 20.4772 69.0739 20.4772C67.8902 20.4772 66.8532 20.7897 65.9631 21.4147C65.0824 22.0302 64.3958 22.9109 63.9034 24.0568C63.411 25.1931 63.1648 26.5378 63.1648 28.0909C63.1648 29.6818 63.4063 31.0549 63.8892 32.2102C64.3722 33.3655 65.054 34.2604 65.9347 34.8948C66.8248 35.5293 67.8712 35.8465 69.0739 35.8465C69.8788 35.8465 70.608 35.6998 71.2614 35.4062C71.9242 35.1032 72.4782 34.6723 72.9233 34.1136C73.3778 33.5549 73.6951 32.8825 73.875 32.0965H78.0085C77.857 33.5075 77.3977 34.767 76.6307 35.8749C75.8636 36.9829 74.8362 37.8541 73.5483 38.4886C72.2699 39.1231 70.7689 39.4403 69.0455 39.4403Z" fill="black"/>
<path d="M82.5504 38.9999V17.1818H86.6271V20.7329H86.897C87.3516 19.5302 88.0949 18.5927 89.1271 17.9204C90.1593 17.2386 91.3951 16.8977 92.8345 16.8977C94.2929 16.8977 95.5144 17.2386 96.4993 17.9204C97.4936 18.6022 98.2275 19.5397 98.701 20.7329H98.9283C99.4491 19.5681 100.278 18.6401 101.414 17.9488C102.55 17.2481 103.905 16.8977 105.477 16.8977C107.456 16.8977 109.07 17.5179 110.32 18.7585C111.58 19.999 112.21 21.8693 112.21 24.3693V38.9999H107.962V24.767C107.962 23.2897 107.56 22.2196 106.755 21.5568C105.95 20.8939 104.989 20.5624 103.871 20.5624C102.489 20.5624 101.414 20.9886 100.647 21.8409C99.88 22.6837 99.4964 23.7679 99.4964 25.0937V38.9999H95.2635V24.4971C95.2635 23.3134 94.8942 22.3617 94.1555 21.642C93.4169 20.9223 92.4557 20.5624 91.272 20.5624C90.4671 20.5624 89.7237 20.7755 89.0419 21.2016C88.3696 21.6183 87.825 22.2007 87.4084 22.9488C87.0012 23.6969 86.7976 24.5634 86.7976 25.5482V38.9999H82.5504Z" fill="black"/>
<path d="M134.251 22.5085L130.402 23.1903C130.241 22.6979 129.985 22.2291 129.635 21.784C129.294 21.339 128.83 20.9744 128.243 20.6903C127.656 20.4062 126.922 20.2641 126.041 20.2641C124.839 20.2641 123.835 20.534 123.03 21.0738C122.225 21.6041 121.822 22.2907 121.822 23.1335C121.822 23.8626 122.092 24.4498 122.632 24.8948C123.172 25.3399 124.043 25.7045 125.246 25.9886L128.712 26.784C130.719 27.2481 132.215 27.963 133.2 28.9289C134.185 29.8948 134.678 31.1496 134.678 32.6931C134.678 33.9999 134.299 35.1647 133.541 36.1874C132.793 37.2007 131.747 37.9962 130.402 38.5738C129.067 39.1515 127.518 39.4403 125.757 39.4403C123.314 39.4403 121.321 38.9195 119.777 37.8778C118.233 36.8267 117.286 35.3352 116.936 33.4034L121.041 32.7784C121.297 33.8484 121.822 34.6581 122.618 35.2073C123.413 35.7471 124.45 36.017 125.729 36.017C127.121 36.017 128.233 35.7282 129.067 35.1505C129.9 34.5634 130.317 33.8484 130.317 33.0056C130.317 32.3238 130.061 31.7509 129.55 31.2869C129.048 30.8229 128.276 30.4725 127.234 30.2357L123.541 29.4261C121.505 28.9621 120 28.2234 119.024 27.2102C118.058 26.1969 117.575 24.9138 117.575 23.3607C117.575 22.0729 117.935 20.946 118.655 19.9801C119.375 19.0141 120.369 18.2613 121.638 17.7215C122.907 17.1723 124.36 16.8977 125.999 16.8977C128.357 16.8977 130.213 17.409 131.567 18.4318C132.921 19.445 133.816 20.8039 134.251 22.5085Z" fill="black"/>
<path d="M139.347 17.1818H143.594V40.4204C143.594 41.8787 143.329 43.1098 142.799 44.1136C142.278 45.1174 141.502 45.8797 140.469 46.4005C139.447 46.9213 138.183 47.1818 136.677 47.1818C136.525 47.1818 136.383 47.1818 136.251 47.1818C136.109 47.1818 135.962 47.177 135.81 47.1676V43.517C135.943 43.517 136.061 43.517 136.165 43.517C136.26 43.517 136.369 43.517 136.492 43.517C137.496 43.517 138.22 43.2471 138.665 42.7073C139.12 42.177 139.347 41.4052 139.347 40.392V17.1818ZM141.45 13.8153C140.711 13.8153 140.076 13.5691 139.546 13.0766C139.025 12.5748 138.765 11.9782 138.765 11.2869C138.765 10.5861 139.025 9.98953 139.546 9.4971C140.076 8.99521 140.711 8.74426 141.45 8.74426C142.188 8.74426 142.818 8.99521 143.339 9.4971C143.869 9.98953 144.134 10.5861 144.134 11.2869C144.134 11.9782 143.869 12.5748 143.339 13.0766C142.818 13.5691 142.188 13.8153 141.45 13.8153Z" fill="black"/>
<path d="M165.658 22.5085L161.808 23.1903C161.647 22.6979 161.392 22.2291 161.041 21.784C160.7 21.339 160.236 20.9744 159.649 20.6903C159.062 20.4062 158.328 20.2641 157.447 20.2641C156.245 20.2641 155.241 20.534 154.436 21.0738C153.631 21.6041 153.229 22.2907 153.229 23.1335C153.229 23.8626 153.499 24.4498 154.038 24.8948C154.578 25.3399 155.449 25.7045 156.652 25.9886L160.118 26.784C162.125 27.2481 163.622 27.963 164.607 28.9289C165.591 29.8948 166.084 31.1496 166.084 32.6931C166.084 33.9999 165.705 35.1647 164.947 36.1874C164.199 37.2007 163.153 37.9962 161.808 38.5738C160.473 39.1515 158.925 39.4403 157.163 39.4403C154.72 39.4403 152.727 38.9195 151.183 37.8778C149.64 36.8267 148.693 35.3352 148.342 33.4034L152.447 32.7784C152.703 33.8484 153.229 34.6581 154.024 35.2073C154.82 35.7471 155.857 36.017 157.135 36.017C158.527 36.017 159.64 35.7282 160.473 35.1505C161.306 34.5634 161.723 33.8484 161.723 33.0056C161.723 32.3238 161.467 31.7509 160.956 31.2869C160.454 30.8229 159.682 30.4725 158.641 30.2357L154.947 29.4261C152.911 28.9621 151.406 28.2234 150.43 27.2102C149.464 26.1969 148.982 24.9138 148.982 23.3607C148.982 22.0729 149.341 20.946 150.061 19.9801C150.781 19.0141 151.775 18.2613 153.044 17.7215C154.313 17.1723 155.767 16.8977 157.405 16.8977C159.763 16.8977 161.619 17.409 162.973 18.4318C164.327 19.445 165.222 20.8039 165.658 22.5085Z" fill="black"/>
<path d="M179.944 39.4403C177.898 39.4403 176.113 38.9715 174.589 38.034C173.064 37.0965 171.88 35.785 171.038 34.0994C170.195 32.4138 169.773 30.4441 169.773 28.1903C169.773 25.927 170.195 23.9479 171.038 22.2528C171.88 20.5577 173.064 19.2414 174.589 18.3039C176.113 17.3664 177.898 16.8977 179.944 16.8977C181.989 16.8977 183.774 17.3664 185.299 18.3039C186.824 19.2414 188.007 20.5577 188.85 22.2528C189.693 23.9479 190.114 25.927 190.114 28.1903C190.114 30.4441 189.693 32.4138 188.85 34.0994C188.007 35.785 186.824 37.0965 185.299 38.034C183.774 38.9715 181.989 39.4403 179.944 39.4403ZM179.958 35.8749C181.284 35.8749 182.382 35.5246 183.254 34.8238C184.125 34.1231 184.769 33.1903 185.185 32.0255C185.612 30.8607 185.825 29.5776 185.825 28.1761C185.825 26.784 185.612 25.5056 185.185 24.3409C184.769 23.1666 184.125 22.2244 183.254 21.5141C182.382 20.8039 181.284 20.4488 179.958 20.4488C178.623 20.4488 177.515 20.8039 176.634 21.5141C175.763 22.2244 175.114 23.1666 174.688 24.3409C174.272 25.5056 174.063 26.784 174.063 28.1761C174.063 29.5776 174.272 30.8607 174.688 32.0255C175.114 33.1903 175.763 34.1231 176.634 34.8238C177.515 35.5246 178.623 35.8749 179.958 35.8749Z" fill="black"/>
<path d="M199.102 26.0454V38.9999H194.855V17.1818H198.932V20.7329H199.202C199.704 19.5776 200.49 18.6496 201.56 17.9488C202.639 17.2481 203.998 16.8977 205.636 16.8977C207.123 16.8977 208.425 17.2102 209.543 17.8352C210.66 18.4507 211.527 19.3693 212.142 20.5909C212.758 21.8124 213.065 23.3229 213.065 25.1221V38.9999H208.818V25.6335C208.818 24.052 208.406 22.8162 207.582 21.9261C206.759 21.0265 205.627 20.5766 204.188 20.5766C203.203 20.5766 202.327 20.7897 201.56 21.2159C200.802 21.642 200.201 22.267 199.756 23.0909C199.32 23.9052 199.102 24.8901 199.102 26.0454Z" fill="black"/>
</svg>
