<svg width="191" height="60" viewBox="0 0 191 60" fill="none" xmlns="http://www.w3.org/2000/svg">
<path d="M180.081 28.4115V37.9996H176.225V21.6359H179.911V24.4165H180.102C180.479 23.5003 181.079 22.7723 181.903 22.2325C182.734 21.6927 183.76 21.4229 184.982 21.4229C186.111 21.4229 187.095 21.6643 187.933 22.1473C188.778 22.6302 189.431 23.3298 189.893 24.246C190.362 25.1622 190.593 26.2737 190.585 27.5805V37.9996H186.729V28.1771C186.729 27.0834 186.445 26.2275 185.877 25.6096C185.316 24.9917 184.538 24.6828 183.544 24.6828C182.869 24.6828 182.269 24.8319 181.743 25.1302C181.225 25.4214 180.816 25.844 180.518 26.398C180.227 26.952 180.081 27.6231 180.081 28.4115Z" fill="black"/>
<path d="M165.11 38.3192C163.512 38.3192 162.127 37.9676 160.956 37.2645C159.784 36.5613 158.875 35.5777 158.228 34.3135C157.589 33.0493 157.27 31.572 157.27 29.8817C157.27 28.1913 157.589 26.7105 158.228 25.4392C158.875 24.1679 159.784 23.1807 160.956 22.4775C162.127 21.7744 163.512 21.4229 165.11 21.4229C166.708 21.4229 168.093 21.7744 169.265 22.4775C170.437 23.1807 171.343 24.1679 171.982 25.4392C172.628 26.7105 172.951 28.1913 172.951 29.8817C172.951 31.572 172.628 33.0493 171.982 34.3135C171.343 35.5777 170.437 36.5613 169.265 37.2645C168.093 37.9676 166.708 38.3192 165.11 38.3192ZM165.132 35.2297C165.998 35.2297 166.723 34.9917 167.305 34.5159C167.887 34.0329 168.321 33.3866 168.605 32.577C168.896 31.7673 169.042 30.8653 169.042 29.871C169.042 28.8696 168.896 27.964 168.605 27.1544C168.321 26.3376 167.887 25.6878 167.305 25.2048C166.723 24.7219 165.998 24.4804 165.132 24.4804C164.244 24.4804 163.505 24.7219 162.916 25.2048C162.333 25.6878 161.897 26.3376 161.605 27.1544C161.321 27.964 161.179 28.8696 161.179 29.871C161.179 30.8653 161.321 31.7673 161.605 32.577C161.897 33.3866 162.333 34.0329 162.916 34.5159C163.505 34.9917 164.244 35.2297 165.132 35.2297Z" fill="black"/>
<path d="M154.441 25.9612L150.925 26.3447C150.826 25.9896 150.652 25.6558 150.403 25.3433C150.162 25.0308 149.835 24.7787 149.423 24.5869C149.011 24.3952 148.507 24.2993 147.91 24.2993C147.108 24.2993 146.433 24.4733 145.886 24.8213C145.346 25.1693 145.08 25.6203 145.087 26.1743C145.08 26.6501 145.254 27.0372 145.609 27.3355C145.971 27.6338 146.568 27.8788 147.399 28.0706L150.19 28.6672C151.738 29.001 152.889 29.5301 153.642 30.2545C154.402 30.979 154.785 31.9271 154.792 33.099C154.785 34.1288 154.483 35.0379 153.887 35.8263C153.297 36.6075 152.477 37.2183 151.426 37.6586C150.375 38.099 149.167 38.3192 147.804 38.3192C145.801 38.3192 144.189 37.9001 142.967 37.0621C141.746 36.2169 141.018 35.0415 140.783 33.5358L144.544 33.1736C144.714 33.9122 145.077 34.4697 145.63 34.8461C146.184 35.2226 146.905 35.4108 147.793 35.4108C148.709 35.4108 149.444 35.2226 149.998 34.8461C150.559 34.4697 150.84 34.0045 150.84 33.4506C150.84 32.9818 150.659 32.5947 150.297 32.2893C149.942 31.9839 149.388 31.7496 148.635 31.5862L145.844 31.0003C144.274 30.6736 143.113 30.1231 142.36 29.349C141.607 28.5677 141.234 27.5805 141.241 26.3873C141.234 25.3788 141.508 24.5052 142.062 23.7666C142.623 23.0209 143.4 22.4456 144.395 22.0407C145.396 21.6288 146.55 21.4229 147.857 21.4229C149.775 21.4229 151.284 21.8312 152.385 22.648C153.493 23.4648 154.178 24.5692 154.441 25.9612Z" fill="black"/>
<path d="M133.685 21.6362H137.542V38.9373C137.542 40.1163 137.318 41.0893 136.871 41.8564C136.423 42.6234 135.777 43.1951 134.932 43.5716C134.086 43.948 133.06 44.1362 131.853 44.1362C131.711 44.1362 131.579 44.1326 131.459 44.1255C131.338 44.1255 131.206 44.122 131.064 44.1149V40.9721C131.171 40.9792 131.267 40.9828 131.352 40.9828C131.437 40.9899 131.526 40.9934 131.618 40.9934C132.357 40.9934 132.886 40.8123 133.206 40.4501C133.525 40.095 133.685 39.573 133.685 38.8841V21.6362ZM135.603 19.3137C134.985 19.3137 134.456 19.1113 134.015 18.7065C133.582 18.2946 133.366 17.801 133.366 17.2257C133.366 16.6433 133.582 16.1497 134.015 15.7449C134.456 15.3329 134.985 15.127 135.603 15.127C136.214 15.127 136.736 15.3329 137.169 15.7449C137.609 16.1497 137.829 16.6433 137.829 17.2257C137.829 17.801 137.609 18.2946 137.169 18.7065C136.736 19.1113 136.214 19.3137 135.603 19.3137Z" fill="black"/>
<path d="M130.154 25.9612L126.638 26.3447C126.539 25.9896 126.365 25.6558 126.116 25.3433C125.875 25.0308 125.548 24.7787 125.136 24.5869C124.724 24.3952 124.22 24.2993 123.623 24.2993C122.821 24.2993 122.146 24.4733 121.599 24.8213C121.059 25.1693 120.793 25.6203 120.8 26.1743C120.793 26.6501 120.967 27.0372 121.322 27.3355C121.684 27.6338 122.281 27.8788 123.112 28.0706L125.903 28.6672C127.451 29.001 128.602 29.5301 129.355 30.2545C130.115 30.979 130.498 31.9271 130.505 33.099C130.498 34.1288 130.196 35.0379 129.6 35.8263C129.01 36.6075 128.19 37.2183 127.139 37.6586C126.088 38.099 124.88 38.3192 123.517 38.3192C121.514 38.3192 119.902 37.9001 118.68 37.0621C117.458 36.2169 116.73 35.0415 116.496 33.5358L120.257 33.1736C120.427 33.9122 120.789 34.4697 121.343 34.8461C121.897 35.2226 122.618 35.4108 123.506 35.4108C124.422 35.4108 125.157 35.2226 125.711 34.8461C126.272 34.4697 126.553 34.0045 126.553 33.4506C126.553 32.9818 126.372 32.5947 126.01 32.2893C125.654 31.9839 125.1 31.7496 124.348 31.5862L121.556 31.0003C119.987 30.6736 118.826 30.1231 118.073 29.349C117.32 28.5677 116.947 27.5805 116.954 26.3873C116.947 25.3788 117.221 24.5052 117.775 23.7666C118.336 23.0209 119.113 22.4456 120.108 22.0407C121.109 21.6288 122.263 21.4229 123.57 21.4229C125.488 21.4229 126.997 21.8312 128.098 22.648C129.206 23.4648 129.891 24.5692 130.154 25.9612Z" fill="black"/>
<path d="M90.2969 37.9996V21.6359H93.983V24.4165H94.1747C94.5156 23.479 95.0803 22.7474 95.8686 22.2219C96.657 21.6892 97.598 21.4229 98.6918 21.4229C99.7997 21.4229 100.734 21.6927 101.494 22.2325C102.261 22.7652 102.8 23.4932 103.113 24.4165H103.283C103.646 23.5074 104.256 22.7829 105.116 22.2432C105.982 21.6963 107.009 21.4229 108.195 21.4229C109.7 21.4229 110.929 21.8987 111.881 22.8504C112.832 23.8021 113.308 25.1906 113.308 27.0159V37.9996H109.441V27.6125C109.441 26.5969 109.171 25.8547 108.631 25.3859C108.092 24.9101 107.431 24.6721 106.65 24.6721C105.719 24.6721 104.991 24.9633 104.466 25.5457C103.947 26.121 103.688 26.8703 103.688 27.7936V37.9996H99.9062V27.4527C99.9062 26.6075 99.6506 25.9328 99.1392 25.4285C98.6349 24.9243 97.9744 24.6721 97.1577 24.6721C96.6037 24.6721 96.0994 24.8142 95.6449 25.0983C95.1903 25.3753 94.8281 25.7694 94.5582 26.2808C94.2883 26.7851 94.1534 27.3746 94.1534 28.0493V37.9996H90.2969Z" fill="black"/>
<path d="M80.1202 38.3192C78.4867 38.3192 77.084 37.9605 75.9121 37.2432C74.7473 36.5258 73.8489 35.5351 73.2168 34.2709C72.5918 32.9996 72.2793 31.5365 72.2793 29.8817C72.2793 28.2197 72.5989 26.7531 73.2381 25.4818C73.8773 24.2034 74.7793 23.2091 75.9441 22.4988C77.1159 21.7815 78.5009 21.4229 80.0989 21.4229C81.427 21.4229 82.6024 21.6679 83.6252 22.1579C84.655 22.6409 85.4753 23.3263 86.0861 24.214C86.6969 25.0947 87.0449 26.1246 87.1301 27.3035H83.4441C83.2949 26.5152 82.9398 25.8582 82.3787 25.3327C81.8248 24.8 81.0826 24.5336 80.1522 24.5336C79.3638 24.5336 78.6713 24.7467 78.0748 25.1728C77.4782 25.5919 77.013 26.1956 76.6792 26.9839C76.3524 27.7723 76.1891 28.7169 76.1891 29.8177C76.1891 30.9328 76.3524 31.8916 76.6792 32.6942C77.0059 33.4896 77.464 34.104 78.0534 34.5372C78.65 34.9633 79.3496 35.1764 80.1522 35.1764C80.7204 35.1764 81.2282 35.0699 81.6756 34.8568C82.1302 34.6366 82.5101 34.3206 82.8155 33.9086C83.1209 33.4967 83.3304 32.996 83.4441 32.4065H87.1301C87.0378 33.5642 86.6969 34.5905 86.1074 35.4854C85.5179 36.3731 84.7154 37.0692 83.6998 37.5734C82.6841 38.0706 81.4909 38.3192 80.1202 38.3192Z" fill="black"/>
<path fill-rule="evenodd" clip-rule="evenodd" d="M41.0286 7.43408C44.3227 9.44498 45.9718 13.4896 44.7904 17.344C43.3939 21.8997 38.5702 24.4696 34.001 23.1026C36.0846 23.7441 38.1159 24.8413 39.715 26.5385L71 60H63.0909L52.3029 48.4615H33.0319L31.2636 54.2308H41.9363L47.4314 60H0L1.7353 54.2308H17.5848L20.3959 45.0597C12.7997 39.8543 9.10617 30.1589 11.9437 20.9019C15.2329 10.1719 26.1269 3.84737 36.9293 6.00924L38.7713 0H43.3076L41.0286 7.43408ZM22.1211 54.2308H26.7271L28.52 48.3815C27.6337 48.2704 26.7571 48.069 25.9057 47.777C25.3529 47.5958 24.8121 47.3945 24.284 47.1739L22.1211 54.2308ZM32.2643 28.607C28.4456 27.4427 24.4037 29.5861 23.2361 33.3948C22.071 37.1961 24.2096 41.2193 28.0144 42.3926C28.0217 42.3948 28.0289 42.3971 28.0362 42.3993C28.0445 42.4019 28.0532 42.4044 28.0616 42.4069C28.7724 42.621 29.4906 42.7205 30.1965 42.7163V42.6923H46.9092L35.4846 30.473C34.6524 29.5938 33.5064 28.9858 32.2643 28.607ZM37.3385 12.0554C35.8111 11.5896 34.194 12.4469 33.727 13.9704C33.26 15.4939 34.1198 17.1067 35.6473 17.5725C37.1748 18.0382 38.7918 17.1807 39.2588 15.6572C39.7257 14.1338 38.8659 12.5212 37.3385 12.0554Z" fill="black"/>
</svg>
