<svg width="71" height="60" viewBox="0 0 71 60" fill="none" xmlns="http://www.w3.org/2000/svg">
<path fill-rule="evenodd" clip-rule="evenodd" d="M41.0286 7.43408C44.3227 9.44498 45.9718 13.4896 44.7904 17.344C43.3939 21.8997 38.5702 24.4696 34.001 23.1026C36.0846 23.7441 38.1159 24.8413 39.715 26.5385L71 60H63.0909L52.3029 48.4615H33.0319L31.2636 54.2308H41.9363L47.4314 60H0L1.7353 54.2308H17.5848L20.3959 45.0597C12.7997 39.8543 9.10617 30.1589 11.9437 20.9019C15.2329 10.1719 26.1269 3.84737 36.9293 6.00924L38.7713 0H43.3076L41.0286 7.43408ZM22.1211 54.2308H26.7271L28.52 48.3815C27.6337 48.2704 26.7571 48.069 25.9057 47.777C25.3529 47.5958 24.8121 47.3945 24.284 47.1739L22.1211 54.2308ZM32.2643 28.607C28.4456 27.4427 24.4037 29.5861 23.2361 33.3948C22.071 37.1961 24.2096 41.2193 28.0144 42.3926C28.0217 42.3948 28.0289 42.3971 28.0362 42.3993C28.0445 42.4019 28.0532 42.4044 28.0616 42.4069C28.7724 42.621 29.4906 42.7205 30.1965 42.7163V42.6923H46.9092L35.4846 30.473C34.6524 29.5938 33.5064 28.9858 32.2643 28.607ZM37.3385 12.0554C35.8111 11.5896 34.194 12.4469 33.727 13.9704C33.26 15.4939 34.1198 17.1067 35.6473 17.5725C37.1748 18.0382 38.7918 17.1807 39.2588 15.6572C39.7257 14.1338 38.8659 12.5212 37.3385 12.0554Z" fill="black"/>
</svg>
