<svg width="157" height="53" viewBox="0 0 157 53" fill="none" xmlns="http://www.w3.org/2000/svg">
<path fill-rule="evenodd" clip-rule="evenodd" d="M23.9547 6.28954C26.3263 7.66412 27.9226 10.228 27.9227 13.1663C27.9227 17.5544 24.3654 21.1116 19.9773 21.1117C19.5499 21.1117 19.1301 21.0776 18.721 21.0127C20.1471 21.6348 21.4649 22.5682 22.566 23.8079L47.9939 52.4399H40.7075L33.0463 43.8134H19.2962C18.1918 43.8134 17.1092 43.7194 16.0554 43.5411L13.3344 52.4399H9.62507L12.6252 42.6287C11.6259 42.2605 10.6659 41.8115 9.75225 41.2904L6.34246 52.4399H2.63309L6.70179 39.1362C2.59821 35.5976 5.24846e-05 30.3608 0 24.5172C0.000172979 13.8604 8.63942 5.22094 19.2962 5.22094V5.25167C19.5207 5.23261 19.7479 5.22095 19.9773 5.22094C20.1749 5.22095 20.3706 5.22981 20.5646 5.24399L22.17 0H25.8794L23.9547 6.28954ZM18.4922 27.426C16.429 25.1032 12.8734 24.8929 10.5503 26.9557C8.51238 28.7656 8.09966 31.7246 9.42194 33.992C9.42708 34.0002 9.59705 34.2659 9.86662 34.6561C12.339 36.9565 15.6528 38.3646 19.2962 38.3646H28.2069L18.4922 27.426ZM19.9773 10.6689C18.5984 10.669 17.4802 11.7874 17.48 13.1663C17.48 14.5454 18.5983 15.6636 19.9773 15.6637C21.3564 15.6636 22.4739 14.5454 22.4739 13.1663C22.4737 11.7874 21.3563 10.669 19.9773 10.6689Z" fill="black"/>
<path d="M146.904 24.8319V33.2119H143.533V18.9101H146.755V21.3403H146.922C147.251 20.5395 147.776 19.9033 148.496 19.4315C149.222 18.9598 150.119 18.7239 151.187 18.7239C152.174 18.7239 153.034 18.9349 153.766 19.357C154.505 19.7791 155.076 20.3906 155.479 21.1913C155.889 21.9921 156.091 22.9635 156.085 24.1057V33.2119H152.714V24.6271C152.714 23.6712 152.466 22.9232 151.969 22.3831C151.479 21.8431 150.799 21.5731 149.93 21.5731C149.34 21.5731 148.816 21.7034 148.356 21.9641C147.903 22.2186 147.546 22.588 147.286 23.0721C147.031 23.5563 146.904 24.1429 146.904 24.8319Z" fill="black"/>
<path d="M133.818 33.4912C132.421 33.4912 131.211 33.184 130.186 32.5694C129.162 31.9549 128.368 31.0952 127.803 29.9903C127.244 28.8853 126.965 27.5942 126.965 26.1169C126.965 24.6395 127.244 23.3453 127.803 22.2341C128.368 21.123 129.162 20.2602 130.186 19.6457C131.211 19.0311 132.421 18.7239 133.818 18.7239C135.214 18.7239 136.425 19.0311 137.449 19.6457C138.473 20.2602 139.265 21.123 139.823 22.2341C140.388 23.3453 140.671 24.6395 140.671 26.1169C140.671 27.5942 140.388 28.8853 139.823 29.9903C139.265 31.0952 138.473 31.9549 137.449 32.5694C136.425 33.184 135.214 33.4912 133.818 33.4912ZM133.836 30.791C134.594 30.791 135.227 30.5831 135.736 30.1672C136.245 29.7451 136.624 29.1802 136.872 28.4726C137.126 27.7649 137.254 26.9766 137.254 26.1075C137.254 25.2323 137.126 24.4409 136.872 23.7332C136.624 23.0194 136.245 22.4514 135.736 22.0293C135.227 21.6072 134.594 21.3961 133.836 21.3961C133.06 21.3961 132.415 21.6072 131.9 22.0293C131.391 22.4514 131.009 23.0194 130.754 23.7332C130.506 24.4409 130.382 25.2323 130.382 26.1075C130.382 26.9766 130.506 27.7649 130.754 28.4726C131.009 29.1802 131.391 29.7451 131.9 30.1672C132.415 30.5831 133.06 30.791 133.836 30.791Z" fill="black"/>
<path d="M124.493 22.6904L121.421 23.0256C121.334 22.7152 121.182 22.4235 120.965 22.1503C120.753 21.8772 120.468 21.6569 120.108 21.4893C119.748 21.3217 119.307 21.2379 118.786 21.2379C118.084 21.2379 117.495 21.3899 117.017 21.6941C116.545 21.9983 116.312 22.3924 116.318 22.8766C116.312 23.2925 116.464 23.6308 116.775 23.8915C117.091 24.1522 117.613 24.3664 118.339 24.534L120.778 25.0554C122.132 25.3471 123.137 25.8096 123.795 26.4427C124.459 27.0759 124.794 27.9046 124.801 28.9288C124.794 29.8289 124.531 30.6234 124.009 31.3124C123.494 31.9952 122.777 32.5291 121.858 32.9139C120.94 33.2988 119.884 33.4912 118.693 33.4912C116.942 33.4912 115.533 33.125 114.465 32.3925C113.398 31.6538 112.761 30.6265 112.557 29.3105L115.843 28.994C115.992 29.6395 116.309 30.1268 116.793 30.4558C117.277 30.7848 117.907 30.9493 118.683 30.9493C119.484 30.9493 120.127 30.7848 120.611 30.4558C121.101 30.1268 121.346 29.7202 121.346 29.2361C121.346 28.8264 121.188 28.4881 120.871 28.2212C120.561 27.9542 120.077 27.7494 119.419 27.6066L116.979 27.0945C115.608 26.809 114.593 26.3279 113.935 25.6513C113.277 24.9685 112.951 24.1057 112.957 23.0628C112.951 22.1814 113.19 21.4179 113.674 20.7723C114.164 20.1205 114.844 19.6177 115.713 19.2639C116.588 18.9039 117.597 18.7239 118.739 18.7239C120.415 18.7239 121.734 19.0808 122.696 19.7946C123.665 20.5085 124.264 21.4737 124.493 22.6904Z" fill="black"/>
<path d="M106.353 18.9101H109.724V34.0313C109.724 35.0617 109.528 35.9121 109.137 36.5825C108.746 37.2529 108.181 37.7526 107.442 38.0816C106.704 38.4106 105.807 38.5751 104.752 38.5751C104.627 38.5751 104.513 38.572 104.407 38.5658C104.301 38.5658 104.187 38.5627 104.062 38.5565V35.8097C104.156 35.8159 104.239 35.819 104.314 35.819C104.388 35.8252 104.466 35.8283 104.547 35.8283C105.192 35.8283 105.655 35.67 105.934 35.3535C106.213 35.0431 106.353 34.5868 106.353 33.9847V18.9101ZM108.029 16.8803C107.489 16.8803 107.027 16.7034 106.642 16.3496C106.263 15.9896 106.074 15.5581 106.074 15.0553C106.074 14.5463 106.263 14.1149 106.642 13.7611C107.027 13.4011 107.489 13.2211 108.029 13.2211C108.563 13.2211 109.019 13.4011 109.398 13.7611C109.783 14.1149 109.975 14.5463 109.975 15.0553C109.975 15.5581 109.783 15.9896 109.398 16.3496C109.019 16.7034 108.563 16.8803 108.029 16.8803Z" fill="black"/>
<path d="M103.265 22.6904L100.192 23.0256C100.105 22.7152 99.9533 22.4235 99.736 22.1503C99.525 21.8772 99.2394 21.6569 98.8794 21.4893C98.5194 21.3217 98.0786 21.2379 97.5572 21.2379C96.8558 21.2379 96.2661 21.3899 95.7881 21.6941C95.3164 21.9983 95.0836 22.3924 95.0898 22.8766C95.0836 23.2925 95.2357 23.6308 95.546 23.8915C95.8626 24.1522 96.384 24.3664 97.1103 24.534L99.5498 25.0554C100.903 25.3471 101.909 25.8096 102.567 26.4427C103.231 27.0759 103.566 27.9046 103.572 28.9288C103.566 29.8289 103.302 30.6234 102.781 31.3124C102.266 31.9952 101.549 32.5291 100.63 32.9139C99.7112 33.2988 98.6559 33.4912 97.4641 33.4912C95.7136 33.4912 94.3046 33.125 93.2369 32.3925C92.1692 31.6538 91.533 30.6265 91.3281 29.3105L94.6149 28.994C94.7639 29.6395 95.0805 30.1268 95.5647 30.4558C96.0488 30.7848 96.6789 30.9493 97.4548 30.9493C98.2556 30.9493 98.898 30.7848 99.3822 30.4558C99.8726 30.1268 100.118 29.7202 100.118 29.2361C100.118 28.8264 99.9595 28.4881 99.6429 28.2212C99.3325 27.9542 98.8484 27.7494 98.1904 27.6066L95.7509 27.0945C94.379 26.809 93.3641 26.3279 92.7062 25.6513C92.0482 24.9685 91.7223 24.1057 91.7285 23.0628C91.7223 22.1814 91.9613 21.4179 92.4455 20.7723C92.9358 20.1205 93.6155 19.6177 94.4846 19.2639C95.3598 18.9039 96.3685 18.7239 97.5107 18.7239C99.1867 18.7239 100.506 19.0808 101.468 19.7946C102.436 20.5085 103.035 21.4737 103.265 22.6904Z" fill="black"/>
<path d="M68.4316 33.2119V18.9101H71.6533V21.3403H71.8209C72.1188 20.5209 72.6123 19.8816 73.3013 19.4222C73.9903 18.9567 74.8128 18.7239 75.7688 18.7239C76.7371 18.7239 77.5534 18.9598 78.2176 19.4315C78.888 19.8971 79.3597 20.5333 79.6328 21.3403H79.7818C80.0984 20.5457 80.6322 19.9126 81.3833 19.4408C82.1406 18.9629 83.0376 18.7239 84.0742 18.7239C85.3902 18.7239 86.4641 19.1398 87.2958 19.9716C88.1276 20.8033 88.5435 22.0169 88.5435 23.6122V33.2119H85.1636V24.1336C85.1636 23.2459 84.9277 22.5973 84.456 22.1876C83.9842 21.7717 83.4069 21.5637 82.7241 21.5637C81.911 21.5637 81.2747 21.8183 80.8153 22.3273C80.3622 22.8301 80.1356 23.4849 80.1356 24.2919V33.2119H76.8302V23.9939C76.8302 23.2553 76.6067 22.6656 76.1598 22.2248C75.7191 21.7841 75.1418 21.5637 74.428 21.5637C73.9438 21.5637 73.5031 21.6879 73.1058 21.9362C72.7085 22.1783 72.3919 22.5228 72.1561 22.9697C71.9202 23.4104 71.8022 23.9257 71.8022 24.5154V33.2119H68.4316Z" fill="black"/>
<path d="M59.5365 33.4912C58.1088 33.4912 56.8829 33.1777 55.8587 32.5508C54.8407 31.9239 54.0554 31.0579 53.503 29.953C52.9567 28.8419 52.6836 27.5632 52.6836 26.1169C52.6836 24.6643 52.9629 23.3825 53.5216 22.2714C54.0803 21.1541 54.8686 20.285 55.8866 19.6643C56.9108 19.0373 58.1213 18.7239 59.5179 18.7239C60.6787 18.7239 61.706 18.938 62.5999 19.3663C63.4999 19.7884 64.2169 20.3875 64.7507 21.1634C65.2846 21.9331 65.5887 22.8332 65.6632 23.8636H62.4416C62.3112 23.1746 62.0009 22.6004 61.5105 22.141C61.0263 21.6755 60.3776 21.4427 59.5645 21.4427C58.8754 21.4427 58.2702 21.6289 57.7488 22.0014C57.2274 22.3676 56.8208 22.8952 56.5291 23.5842C56.2435 24.2733 56.1008 25.0988 56.1008 26.061C56.1008 27.0355 56.2435 27.8735 56.5291 28.575C56.8146 29.2702 57.215 29.8071 57.7302 30.1858C58.2516 30.5582 58.863 30.7445 59.5645 30.7445C60.0611 30.7445 60.5049 30.6513 60.8959 30.4651C61.2932 30.2727 61.6253 29.9965 61.8922 29.6364C62.1591 29.2764 62.3423 28.8388 62.4416 28.3236H65.6632C65.5825 29.3354 65.2846 30.2323 64.7693 31.0145C64.2541 31.7904 63.5527 32.3987 62.665 32.8394C61.7774 33.274 60.7346 33.4912 59.5365 33.4912Z" fill="black"/>
</svg>
