<svg width="32" height="32" viewBox="0 0 32 32" fill="none" xmlns="http://www.w3.org/2000/svg">
<path d="M27.999 14.6669C27.999 14.3133 27.8584 13.9736 27.6084 13.7235L19.6104 5.72452C19.4866 5.60072 19.3395 5.5015 19.1777 5.43448C19.0159 5.36744 18.8421 5.33292 18.667 5.33292C18.4919 5.33293 18.318 5.36745 18.1562 5.43448C17.9946 5.50152 17.8474 5.59975 17.7236 5.72354L8.66113 14.786L18.5498 24.6747L27.6084 15.6093C27.8583 15.3593 27.999 15.0204 27.999 14.6669ZM4 19.9999C4 20.3534 4.14081 20.6923 4.39062 20.9423L9.7168 26.2753L9.81445 26.3642C9.91587 26.4474 10.0297 26.515 10.1514 26.5653C10.3137 26.6324 10.4875 26.6673 10.6631 26.6669H16.5596L16.6641 26.5605L6.77539 16.6718L4.39062 19.0575C4.14077 19.3075 4.00003 19.6465 4 19.9999ZM30.666 14.6669C30.666 15.7275 30.2449 16.745 29.4951 17.495L29.4941 17.494L20.3281 26.6669H28C28.7362 26.667 29.333 27.2637 29.333 27.9999C29.333 28.7362 28.7363 29.3328 28 29.3329H10.666C10.1398 29.3337 9.61818 29.2312 9.13184 29.0302C8.64453 28.8287 8.20165 28.5323 7.8291 28.1591L2.50391 22.828L2.50488 22.8271C1.75527 22.077 1.33398 21.0604 1.33398 19.9999C1.33401 18.9393 1.75502 17.9219 2.50488 17.1718L15.8379 3.83878C16.2093 3.46726 16.6505 3.17271 17.1357 2.97159C17.6211 2.77048 18.1416 2.66691 18.667 2.6669C19.1924 2.6669 19.7128 2.77047 20.1982 2.97159C20.6836 3.17271 21.1247 3.46721 21.4961 3.83878L29.4951 11.8388L29.6318 11.9823C30.2959 12.716 30.666 13.6726 30.666 14.6669Z" fill="black"/>
</svg>
