<svg width="50" height="58" viewBox="0 0 50 58" fill="none" xmlns="http://www.w3.org/2000/svg">
<path d="M23.0195 1.98214C23.2283 -0.43757 26.7719 -0.43757 26.9807 1.98214L27.4494 7.41424C27.6649 9.9115 28.2141 12.3687 29.0824 14.7205L29.2615 15.2056C30.0961 17.4661 32.427 18.81 34.8046 18.4015C37.0039 18.0236 39.1427 17.3535 41.1641 16.4091L47.1512 13.6118C49.354 12.5826 51.1257 15.6471 49.1319 17.0376L45.0087 19.9129C42.902 21.3819 41.0016 23.1259 39.3582 25.0984L39.1156 25.3896C37.4799 27.3529 37.4799 30.2022 39.1156 32.1655C40.6289 33.9817 42.3787 35.5876 44.3184 36.9403L49.1319 40.297C51.1257 41.6875 49.354 44.7521 47.1512 43.723L42.2174 41.4176C39.9923 40.3779 37.6379 39.6403 35.2169 39.2244C32.6004 38.7749 30.0352 40.2539 29.1168 42.7415L29.0687 42.8718C28.193 45.2435 27.6392 47.7216 27.4219 50.2401L26.9807 55.3526C26.7718 57.7723 23.2284 57.7723 23.0195 55.3526L22.4787 49.0876C22.2825 46.8155 21.7828 44.5798 20.9929 42.44C20.139 40.1271 17.754 38.752 15.3213 39.1699L14.8107 39.2576C12.2859 39.6914 9.83054 40.4606 7.5101 41.5449L2.84874 43.723C0.646004 44.752 -1.12573 41.6875 0.868104 40.297L6.38477 36.4498C8.20785 35.1784 9.85242 33.6692 11.2747 31.9622C12.8124 30.1168 12.8124 27.4384 11.2748 25.5929L11.0323 25.3019C9.47987 23.4385 7.68468 21.7911 5.69458 20.4033L0.868104 17.0376C-1.1257 15.6471 0.645984 12.5827 2.84874 13.6118L8.56349 16.2819C10.6802 17.2708 12.9198 17.9725 15.2228 18.3682L15.36 18.3918C17.7703 18.8059 20.1333 17.4435 20.9792 15.1519C21.7616 13.0324 22.2566 10.8178 22.4509 8.56717L23.0195 1.98214Z" fill="black"/>
</svg>
