<svg width="32" height="32" viewBox="0 0 32 32" fill="none" xmlns="http://www.w3.org/2000/svg">
<path d="M21.3332 12C22.1987 13.154 22.6665 14.5575 22.6665 16C22.6665 17.4425 22.1987 18.846 21.3332 20M25.8185 24.4853C26.9328 23.371 27.8167 22.0481 28.4198 20.5922C29.0229 19.1363 29.3333 17.5759 29.3333 16C29.3333 14.4241 29.0229 12.8637 28.4198 11.4078C27.8167 9.95184 26.9328 8.62897 25.8185 7.51466M14.6665 6.26933C14.6662 6.08361 14.611 5.90214 14.5077 5.74781C14.4043 5.59347 14.2576 5.4732 14.086 5.40217C13.9144 5.33113 13.7257 5.31252 13.5435 5.34868C13.3613 5.38483 13.194 5.47414 13.0625 5.60533L8.5505 10.116C8.37638 10.2912 8.16922 10.43 7.94103 10.5246C7.71284 10.6191 7.46816 10.6674 7.22117 10.6667H3.99984C3.64622 10.6667 3.30708 10.8071 3.05703 11.0572C2.80698 11.3072 2.6665 11.6464 2.6665 12V20C2.6665 20.3536 2.80698 20.6928 3.05703 20.9428C3.30708 21.1929 3.64622 21.3333 3.99984 21.3333H7.22117C7.46816 21.3326 7.71284 21.3809 7.94103 21.4754C8.16922 21.57 8.37638 21.7088 8.5505 21.884L13.0612 26.396C13.1926 26.5277 13.3602 26.6175 13.5428 26.6538C13.7253 26.6902 13.9145 26.6716 14.0864 26.6003C14.2583 26.5291 14.4052 26.4084 14.5085 26.2536C14.6118 26.0988 14.6668 25.9168 14.6665 25.7307V6.26933Z" stroke="white" stroke-width="2.66667" stroke-linecap="round" stroke-linejoin="round"/>
</svg>
