<svg width="32" height="32" viewBox="0 0 32 32" fill="none" xmlns="http://www.w3.org/2000/svg">
<path d="M13.4497 4.01428C13.7826 3.97344 14.1205 4.00682 14.439 4.11194L14.5962 4.17053L14.7485 4.23987C15.048 4.39057 15.3105 4.60572 15.5171 4.86975L15.6157 5.00647L15.7036 5.14905C15.8966 5.48922 15.9989 5.87423 15.9995 6.26721V25.7291L15.9937 25.8971C15.9652 26.2879 15.8362 26.6662 15.6177 26.9938C15.368 27.368 15.0127 27.6594 14.5972 27.8317C14.1814 28.004 13.7232 28.0495 13.2817 27.9615C12.8405 27.8735 12.4355 27.656 12.1177 27.3375L7.60498 22.8239C7.55536 22.7739 7.49616 22.7346 7.43115 22.7076C7.36596 22.6806 7.29565 22.6664 7.2251 22.6666H3.99951C3.29238 22.6665 2.61379 22.3854 2.11377 21.8854C1.61389 21.3853 1.3335 20.7067 1.3335 19.9996V11.9996C1.33359 11.2925 1.61376 10.6139 2.11377 10.1139C2.61379 9.61388 3.29239 9.3337 3.99951 9.33362H7.2251C7.29566 9.33382 7.36596 9.31961 7.43115 9.2926C7.49613 9.26563 7.55536 9.22627 7.60498 9.17639L12.1206 4.66174C12.4385 4.34451 12.8432 4.12812 13.2837 4.04065L13.4497 4.01428ZM27.9995 15.9996C27.9995 14.599 27.724 13.2116 27.188 11.9176C26.6519 10.6236 25.8659 9.44805 24.8755 8.45764C24.3549 7.93698 24.3549 7.0926 24.8755 6.5719C25.3962 6.0512 26.2405 6.05122 26.7612 6.5719C27.9993 7.80994 28.9818 9.27952 29.6519 10.8971C30.3219 12.5147 30.6665 14.2488 30.6665 15.9996C30.6665 17.7505 30.3218 19.4846 29.6519 21.1022C28.9818 22.7199 27.9994 24.1902 26.7612 25.4283C26.2405 25.9489 25.3961 25.949 24.8755 25.4283C24.3548 24.9077 24.3549 24.0633 24.8755 23.5426C25.866 22.5521 26.6519 21.3758 27.188 20.0817C27.724 18.7876 27.9995 17.4003 27.9995 15.9996ZM21.3335 15.9996C21.3334 14.8458 20.9584 13.7235 20.2661 12.8004C19.8243 12.2114 19.9438 11.3751 20.5327 10.9332C21.1218 10.4914 21.9581 10.6108 22.3999 11.1998C23.4384 12.5845 23.9994 14.2688 23.9995 15.9996C23.9995 17.7306 23.4385 19.4156 22.3999 20.8004C21.958 21.3893 21.1217 21.5088 20.5327 21.067C19.9437 20.6252 19.8244 19.7889 20.2661 19.1998C20.9585 18.2766 21.3335 17.1536 21.3335 15.9996ZM3.99951 19.9996H7.22119C7.64328 19.9989 8.0617 20.0822 8.45166 20.2438C8.84151 20.4053 9.1958 20.6421 9.49365 20.941L13.3335 24.7819V7.21936L9.49365 11.0592C9.1958 11.3581 8.84149 11.5949 8.45166 11.7565C8.06169 11.918 7.64327 11.9994 7.22119 11.9987L3.99951 11.9996V19.9996Z" fill="black"/>
</svg>
